<svg width="25" height="26" viewBox="0 0 25 26" fill="none" xmlns="http://www.w3.org/2000/svg">
<path d="M12.5 0.166687C10.8585 0.166687 9.23303 0.490009 7.71646 1.11819C6.19989 1.74638 4.8219 2.66712 3.66117 3.82785C1.31696 6.17206 0 9.35148 0 12.6667C0 15.9819 1.31696 19.1613 3.66117 21.5055C4.8219 22.6663 6.19989 23.587 7.71646 24.2152C9.23303 24.8434 10.8585 25.1667 12.5 25.1667C15.8152 25.1667 18.9946 23.8497 21.3388 21.5055C23.683 19.1613 25 15.9819 25 12.6667H22.5C22.5 15.3189 21.4464 17.8624 19.5711 19.7378C17.6957 21.6131 15.1522 22.6667 12.5 22.6667C9.84784 22.6667 7.3043 21.6131 5.42893 19.7378C3.55357 17.8624 2.5 15.3189 2.5 12.6667C2.5 10.0145 3.55357 7.47098 5.42893 5.59562C7.3043 3.72026 9.84784 2.66669 12.5 2.66669V0.166687ZM20.975 1.41669C20.7501 1.41859 20.5347 1.5083 20.375 1.66669L18.85 3.17919L21.975 6.30419L23.5 4.79169C23.825 4.46669 23.825 3.91669 23.5 3.60419L21.5625 1.66669C21.4 1.50419 21.1875 1.41669 20.975 1.41669ZM17.9625 4.06669L8.75 13.2917V16.4167H11.875L21.0875 7.19169L17.9625 4.06669Z" fill="#6580DD"/>
</svg>
