<svg width="18" height="15" viewBox="0 0 18 15" fill="none" xmlns="http://www.w3.org/2000/svg">
<path d="M7.875 14.6365C7.875 14.6365 6.75 14.6365 6.75 13.4774C6.75 12.3183 7.875 8.84101 12.375 8.84101C16.875 8.84101 18 12.3183 18 13.4774C18 14.6365 16.875 14.6365 16.875 14.6365H7.875ZM12.375 7.68192C13.2701 7.68192 14.1286 7.31557 14.7615 6.66345C15.3944 6.01134 15.75 5.12688 15.75 4.20465C15.75 3.28242 15.3944 2.39796 14.7615 1.74585C14.1286 1.09373 13.2701 0.727379 12.375 0.727379C11.4799 0.727379 10.6214 1.09373 9.98851 1.74585C9.35558 2.39796 9 3.28242 9 4.20465C9 5.12688 9.35558 6.01134 9.98851 6.66345C10.6214 7.31557 11.4799 7.68192 12.375 7.68192ZM5.868 14.6365C5.70122 14.2746 5.61805 13.8779 5.625 13.4774C5.625 11.9068 6.39 10.2899 7.803 9.16556C7.09773 8.94167 6.36294 8.83217 5.625 8.84101C1.125 8.84101 0 12.3183 0 13.4774C0 14.6365 1.125 14.6365 1.125 14.6365H5.868ZM5.0625 7.68192C5.80842 7.68192 6.52379 7.37663 7.05124 6.8332C7.57868 6.28977 7.875 5.55272 7.875 4.7842C7.875 4.01567 7.57868 3.27862 7.05124 2.73519C6.52379 2.19177 5.80842 1.88647 5.0625 1.88647C4.31658 1.88647 3.60121 2.19177 3.07376 2.73519C2.54632 3.27862 2.25 4.01567 2.25 4.7842C2.25 5.55272 2.54632 6.28977 3.07376 6.8332C3.60121 7.37663 4.31658 7.68192 5.0625 7.68192Z" fill="white"/>
</svg>
