<svg width="142" height="34" viewBox="0 0 142 34" fill="none" xmlns="http://www.w3.org/2000/svg">
<path d="M41.502 23V18.842H43.518C44.288 18.842 45.03 18.744 45.744 18.548C46.472 18.352 47.123 18.051 47.697 17.645C48.271 17.239 48.726 16.721 49.062 16.091C49.398 15.461 49.566 14.719 49.566 13.865C49.566 12.717 49.293 11.765 48.747 11.009C48.215 10.239 47.501 9.665 46.605 9.287C45.723 8.909 44.75 8.72 43.686 8.72H37.68V23H41.502ZM43.56 11.723C43.994 11.723 44.358 11.814 44.652 11.996C44.96 12.178 45.198 12.43 45.366 12.752C45.534 13.074 45.618 13.445 45.618 13.865C45.618 14.229 45.527 14.565 45.345 14.873C45.177 15.167 44.939 15.405 44.631 15.587C44.337 15.755 43.994 15.839 43.602 15.839H41.502V11.723H43.56ZM54.8583 23V17.015C55.1523 16.791 55.4813 16.595 55.8453 16.427C56.2233 16.259 56.6013 16.126 56.9793 16.028C57.3713 15.93 57.7353 15.881 58.0713 15.881L57.2943 12.815C56.9163 12.815 56.5103 12.885 56.0763 13.025C55.6563 13.151 55.2503 13.312 54.8583 13.508C54.4803 13.69 54.1513 13.879 53.8713 14.075L52.9473 12.836H51.0363V23H54.8583ZM63.1435 23V12.815H59.3215V23H63.1435ZM61.2115 11.429C61.7855 11.429 62.2755 11.226 62.6815 10.82C63.1015 10.414 63.3115 9.931 63.3115 9.371C63.3115 8.797 63.1015 8.307 62.6815 7.901C62.2755 7.481 61.7855 7.271 61.2115 7.271C60.6515 7.271 60.1685 7.481 59.7625 7.901C59.3565 8.307 59.1535 8.797 59.1535 9.371C59.1535 9.931 59.3565 10.414 59.7625 10.82C60.1685 11.226 60.6515 11.429 61.2115 11.429ZM69.0702 23V16.154C69.2802 16.056 69.5112 15.965 69.7632 15.881C70.0292 15.797 70.2812 15.727 70.5192 15.671C70.7712 15.601 70.9742 15.566 71.1282 15.566C71.5482 15.566 71.8352 15.692 71.9892 15.944C72.1432 16.182 72.2202 16.462 72.2202 16.784V23H76.0422V16.427C76.0422 15.671 75.9092 14.999 75.6432 14.411C75.3912 13.809 74.9922 13.34 74.4462 13.004C73.9142 12.654 73.2142 12.479 72.3462 12.479C71.8002 12.479 71.2752 12.549 70.7712 12.689C70.2672 12.829 69.7912 13.011 69.3432 13.235C68.9092 13.445 68.5242 13.655 68.1882 13.865L67.5162 12.815H65.2482V23H69.0702ZM85.2896 13.235H82.6226V9.959L78.8006 10.484V13.235H77.2256V16.238H78.8006V19.178C78.8006 20.074 79.0246 20.823 79.4726 21.425C79.9346 22.027 80.5296 22.482 81.2576 22.79C81.9856 23.084 82.7556 23.231 83.5676 23.231C83.9036 23.231 84.2536 23.182 84.6176 23.084C84.9956 23 85.3386 22.888 85.6466 22.748C85.9686 22.608 86.2136 22.468 86.3816 22.328L85.2896 19.724C85.0516 19.864 84.7996 19.969 84.5336 20.039C84.2676 20.095 84.0296 20.123 83.8196 20.123C83.4556 20.123 83.1616 20.004 82.9376 19.766C82.7276 19.514 82.6226 19.178 82.6226 18.758V16.238H85.6466L85.2896 13.235ZM87.2858 22.118C87.5658 22.286 87.8948 22.44 88.2728 22.58C88.6648 22.72 89.0708 22.846 89.4908 22.958C89.9248 23.056 90.3518 23.133 90.7718 23.189C91.2058 23.245 91.6048 23.273 91.9688 23.273C93.1448 23.273 94.1598 23.091 95.0138 22.727C95.8678 22.363 96.5188 21.866 96.9668 21.236C97.4288 20.592 97.6598 19.871 97.6598 19.073C97.6598 18.485 97.5268 17.96 97.2608 17.498C97.0088 17.022 96.6728 16.588 96.2528 16.196C95.8328 15.804 95.3638 15.447 94.8458 15.125C94.3418 14.803 93.8378 14.495 93.3338 14.201C92.9558 13.977 92.5988 13.788 92.2628 13.634C91.9408 13.466 91.6748 13.298 91.4648 13.13C91.2688 12.962 91.1708 12.78 91.1708 12.584C91.1708 12.318 91.2968 12.087 91.5488 11.891C91.8008 11.681 92.1438 11.576 92.5778 11.576C92.8998 11.576 93.1938 11.597 93.4598 11.639C93.7258 11.667 94.0198 11.723 94.3418 11.807C94.6778 11.891 95.0978 12.024 95.6018 12.206L96.7358 9.623C96.1758 9.245 95.5108 8.958 94.7408 8.762C93.9848 8.552 93.2498 8.447 92.5358 8.447C91.4578 8.447 90.5198 8.629 89.7218 8.993C88.9238 9.343 88.3078 9.826 87.8738 10.442C87.4538 11.058 87.2368 11.758 87.2228 12.542C87.2228 13.144 87.3558 13.69 87.6218 14.18C87.8878 14.656 88.2378 15.083 88.6718 15.461C89.1058 15.839 89.5678 16.182 90.0578 16.49C90.5618 16.798 91.0448 17.092 91.5068 17.372C91.8708 17.582 92.2208 17.785 92.5568 17.981C92.8928 18.163 93.1658 18.345 93.3758 18.527C93.5998 18.695 93.7118 18.863 93.7118 19.031C93.7118 19.199 93.6418 19.374 93.5018 19.556C93.3618 19.724 93.1518 19.864 92.8718 19.976C92.6058 20.088 92.2698 20.144 91.8638 20.144C91.5278 20.144 91.1428 20.102 90.7088 20.018C90.2888 19.92 89.8828 19.801 89.4908 19.661C89.1128 19.521 88.7978 19.381 88.5458 19.241L87.2858 22.118ZM106.351 13.235H103.684V9.959L99.8621 10.484V13.235H98.2871V16.238H99.8621V19.178C99.8621 20.074 100.086 20.823 100.534 21.425C100.996 22.027 101.591 22.482 102.319 22.79C103.047 23.084 103.817 23.231 104.629 23.231C104.965 23.231 105.315 23.182 105.679 23.084C106.057 23 106.4 22.888 106.708 22.748C107.03 22.608 107.275 22.468 107.443 22.328L106.351 19.724C106.113 19.864 105.861 19.969 105.595 20.039C105.329 20.095 105.091 20.123 104.881 20.123C104.517 20.123 104.223 20.004 103.999 19.766C103.789 19.514 103.684 19.178 103.684 18.758V16.238H106.708L106.351 13.235ZM113.765 23.231C112.673 23.231 111.693 23.035 110.825 22.643C109.971 22.251 109.299 21.656 108.809 20.858C108.319 20.06 108.074 19.059 108.074 17.855C108.074 16.707 108.333 15.734 108.851 14.936C109.369 14.138 110.062 13.529 110.93 13.109C111.812 12.675 112.785 12.458 113.849 12.458C114.969 12.458 115.963 12.668 116.831 13.088C117.699 13.494 118.378 14.103 118.868 14.915C119.372 15.727 119.624 16.742 119.624 17.96C119.624 19.094 119.358 20.053 118.826 20.837C118.308 21.621 117.608 22.216 116.726 22.622C115.844 23.028 114.857 23.231 113.765 23.231ZM113.807 20.123C114.213 20.123 114.549 20.046 114.815 19.892C115.095 19.724 115.305 19.479 115.445 19.157C115.599 18.835 115.676 18.436 115.676 17.96C115.676 17.498 115.606 17.092 115.466 16.742C115.326 16.378 115.123 16.091 114.857 15.881C114.605 15.671 114.283 15.566 113.891 15.566C113.499 15.566 113.163 15.657 112.883 15.839C112.603 16.021 112.386 16.287 112.232 16.637C112.092 16.973 112.022 17.379 112.022 17.855C112.022 18.303 112.092 18.702 112.232 19.052C112.372 19.388 112.575 19.654 112.841 19.85C113.107 20.032 113.429 20.123 113.807 20.123ZM128.441 19.577C128.035 19.787 127.678 19.934 127.37 20.018C127.062 20.088 126.74 20.123 126.404 20.123C126.068 20.123 125.746 20.039 125.438 19.871C125.13 19.703 124.878 19.458 124.682 19.136C124.5 18.8 124.409 18.394 124.409 17.918C124.409 17.428 124.5 17.008 124.682 16.658C124.878 16.308 125.13 16.042 125.438 15.86C125.746 15.664 126.068 15.566 126.404 15.566C126.768 15.566 127.097 15.608 127.391 15.692C127.685 15.762 128.035 15.902 128.441 16.112L129.512 13.487C129.12 13.179 128.707 12.955 128.273 12.815C127.839 12.661 127.426 12.563 127.034 12.521C126.642 12.479 126.306 12.458 126.026 12.458C124.934 12.458 123.968 12.675 123.128 13.109C122.288 13.543 121.63 14.166 121.154 14.978C120.692 15.79 120.461 16.77 120.461 17.918C120.461 19.052 120.692 20.018 121.154 20.816C121.63 21.6 122.288 22.202 123.128 22.622C123.968 23.028 124.934 23.231 126.026 23.231C126.306 23.231 126.642 23.21 127.034 23.168C127.426 23.126 127.839 23.035 128.273 22.895C128.707 22.741 129.12 22.51 129.512 22.202L128.441 19.577ZM134.721 23V19.724L135.414 19.199L137.43 23H141.546L138.102 17.183L140.811 15.146L138.522 12.521L134.721 15.734V8.174L130.899 8.405V23H134.721Z" fill="white"/>
<path d="M11.7615 3.53865C11.7707 3.53354 11.781 3.52944 11.7697 3.51818C11.7421 3.4885 11.7052 3.46495 11.6735 3.44039C11.6407 3.4148 11.608 3.3892 11.5752 3.36464C11.5087 3.3155 11.4421 3.26739 11.3736 3.22133C11.2374 3.12818 11.0972 3.04015 10.9569 2.95314C10.8976 2.91629 10.8382 2.88046 10.7788 2.84463C10.7143 2.80574 10.6509 2.76684 10.5802 2.74022C10.4769 2.70133 10.3622 2.68904 10.2527 2.68597C10.1165 2.6829 9.98039 2.7003 9.84937 2.73306C9.75213 2.7566 9.65693 2.78936 9.56582 2.82928C9.53204 2.84361 9.49826 2.85896 9.46653 2.87739L8.84007 3.26023L0 8.72232L0.142285 8.81649C1.46481 9.8606 12.6408 19.1122 7.07431 29.2932C7.37935 29.1601 7.73557 28.8817 8.13786 28.4548C8.71314 27.8417 9.45118 27.1415 10.1483 25.7637C10.1534 25.7535 10.1554 25.7432 10.1626 25.733C10.7358 24.7165 11.1217 23.7103 11.3572 22.7205C12.6531 15.0944 4.58689 7.61885 4.58689 7.61885C4.58996 7.6168 4.59405 7.61475 4.59712 7.6127C4.60736 7.60656 4.61657 7.60144 4.62681 7.5953C4.64319 7.58609 4.65956 7.57688 4.67492 7.56766L11.7615 3.53865Z" fill="white"/>
<path d="M8.26172 29.2799C8.26172 29.2799 23.1207 28.6022 27.6401 19.8594C30.8522 12.7278 27.5623 6.84805 26.0647 4.71787C25.9541 4.56023 25.817 4.42818 25.6481 4.33503C25.4689 4.23574 25.253 4.18354 25.0482 4.17432C24.952 4.17023 24.8558 4.17637 24.7616 4.1948C24.6152 4.22448 24.477 4.28385 24.344 4.35039C24.2048 4.41999 24.0615 4.48346 23.9202 4.54897C23.7902 4.60937 23.6612 4.66874 23.5312 4.72913C23.3787 4.79976 23.2251 4.87142 23.0726 4.94205C22.8986 5.02291 22.7256 5.10276 22.5516 5.18362C22.3602 5.27268 22.1688 5.36173 21.9773 5.45079C21.7706 5.54701 21.5638 5.64323 21.357 5.73843C21.138 5.83977 20.9189 5.94213 20.6999 6.04347C20.4706 6.14993 20.2423 6.25639 20.013 6.36284C19.7765 6.47237 19.5411 6.5819 19.3046 6.69143C19.0641 6.80301 18.8235 6.91458 18.584 7.02616C18.3424 7.13876 18.0998 7.25033 17.8583 7.36293C17.6177 7.47451 17.3771 7.58608 17.1356 7.69868C16.8991 7.80821 16.6616 7.91876 16.4252 8.02829C16.1949 8.13475 15.9645 8.24223 15.7342 8.34869C15.5131 8.45105 15.292 8.55341 15.0709 8.6568C14.8621 8.75404 14.6533 8.85129 14.4444 8.94751C14.25 9.03759 14.0565 9.12767 13.862 9.21775C13.6849 9.29964 13.5088 9.38153 13.3318 9.46342C13.1751 9.5361 13.0185 9.60878 12.8629 9.68145C12.7299 9.7439 12.5958 9.80531 12.4627 9.86775C12.3552 9.91791 12.2467 9.96807 12.1392 10.0182C12.0594 10.0551 11.9806 10.0919 11.9007 10.1288C11.8526 10.1513 11.8045 10.1738 11.7564 10.1963C11.7421 10.2035 11.7277 10.2096 11.7124 10.2168C11.7124 10.2168 20.3528 22.5137 10.225 28.0996C10.1861 28.1222 8.30266 29.2584 8.26172 29.2799Z" fill="white"/>
<path d="M10.3459 26.9849C18.8768 19.8584 9.62833 9.56067 9.62833 9.56067L20.5239 4.14669C20.4645 4.00031 20.3816 3.86314 20.2915 3.73416C20.1881 3.58471 20.0745 3.44345 19.9557 3.30731C19.8073 3.13636 19.6497 2.97258 19.4879 2.8129C19.3252 2.65321 19.1573 2.49762 18.9864 2.34714C18.9833 2.34407 18.9792 2.341 18.9761 2.33793C18.8697 2.24478 18.7601 2.15163 18.6312 2.09226C18.5544 2.05643 18.4735 2.03391 18.3906 2.01856C18.3077 2.00423 18.2217 1.99297 18.1378 2.00525C18.1234 2.0073 18.1091 2.01037 18.0958 2.01344C18.059 2.02163 18.0221 2.03494 17.9883 2.05234L13.6133 4.30023L6.2002 8.10813C6.19917 8.10813 16.8971 17.937 10.3459 26.9849Z" fill="white"/>
</svg>
