<svg width="66" height="48" viewBox="0 0 66 48" fill="none" xmlns="http://www.w3.org/2000/svg">
<path d="M6 0H48V12H57L66 24V39H60C60 41.3869 59.0518 43.6761 57.364 45.364C55.6761 47.0518 53.3869 48 51 48C48.6131 48 46.3239 47.0518 44.636 45.364C42.9482 43.6761 42 41.3869 42 39H24C24 41.3869 23.0518 43.6761 21.364 45.364C19.6761 47.0518 17.3869 48 15 48C12.6131 48 10.3239 47.0518 8.63604 45.364C6.94821 43.6761 6 41.3869 6 39H0V6C0 4.4087 0.632141 2.88258 1.75736 1.75736C2.88258 0.632141 4.4087 0 6 0ZM48 16.5V24H61.41L55.5 16.5H48ZM15 34.5C13.8065 34.5 12.6619 34.9741 11.818 35.818C10.9741 36.6619 10.5 37.8065 10.5 39C10.5 40.1935 10.9741 41.3381 11.818 42.182C12.6619 43.0259 13.8065 43.5 15 43.5C16.1935 43.5 17.3381 43.0259 18.182 42.182C19.0259 41.3381 19.5 40.1935 19.5 39C19.5 37.8065 19.0259 36.6619 18.182 35.818C17.3381 34.9741 16.1935 34.5 15 34.5ZM51 34.5C49.8065 34.5 48.6619 34.9741 47.818 35.818C46.9741 36.6619 46.5 37.8065 46.5 39C46.5 40.1935 46.9741 41.3381 47.818 42.182C48.6619 43.0259 49.8065 43.5 51 43.5C52.1935 43.5 53.3381 43.0259 54.182 42.182C55.0259 41.3381 55.5 40.1935 55.5 39C55.5 37.8065 55.0259 36.6619 54.182 35.818C53.3381 34.9741 52.1935 34.5 51 34.5ZM21 30L39 12L34.77 7.74L21 21.51L14.73 15.24L10.5 19.5L21 30Z" fill="black" fill-opacity="0.75"/>
</svg>
