<svg width="14" height="16" viewBox="0 0 14 16" fill="none" xmlns="http://www.w3.org/2000/svg">
<path fill-rule="evenodd" clip-rule="evenodd" d="M8.94118 3.5C8.94118 2.83696 8.69328 2.20107 8.25202 1.73223C7.81075 1.26339 7.21227 1 6.58824 1C5.9642 1 5.36572 1.26339 4.92445 1.73223C4.48319 2.20107 4.23529 2.83696 4.23529 3.5V4H8.94118V3.5ZM9.88235 3.5V4H13.1765V14C13.1765 14.5304 12.9782 15.0391 12.6251 15.4142C12.2721 15.7893 11.7933 16 11.2941 16H1.88235C1.38312 16 0.904338 15.7893 0.551328 15.4142C0.198319 15.0391 0 14.5304 0 14V4H3.29412V3.5C3.29412 2.57174 3.64118 1.6815 4.25894 1.02513C4.87671 0.368749 5.71458 0 6.58824 0C7.46189 0 8.29976 0.368749 8.91753 1.02513C9.53529 1.6815 9.88235 2.57174 9.88235 3.5ZM9.27435 8.854C9.36272 8.76011 9.41236 8.63278 9.41236 8.5C9.41236 8.36722 9.36272 8.23989 9.27435 8.146C9.18599 8.05211 9.06614 7.99937 8.94118 7.99937C8.81621 7.99937 8.69636 8.05211 8.608 8.146L6.11765 10.793L5.03906 9.646C4.99531 9.59951 4.94336 9.56264 4.8862 9.53748C4.82903 9.51232 4.76776 9.49937 4.70588 9.49937C4.64401 9.49937 4.58273 9.51232 4.52557 9.53748C4.4684 9.56264 4.41646 9.59951 4.37271 9.646C4.32895 9.69249 4.29425 9.74768 4.27057 9.80842C4.24689 9.86916 4.2347 9.93426 4.2347 10C4.2347 10.0657 4.24689 10.1308 4.27057 10.1916C4.29425 10.2523 4.32895 10.3075 4.37271 10.354L5.78447 11.854C5.82818 11.9006 5.88011 11.9375 5.93729 11.9627C5.99446 11.9879 6.05575 12.0009 6.11765 12.0009C6.17955 12.0009 6.24084 11.9879 6.29801 11.9627C6.35518 11.9375 6.40711 11.9006 6.45082 11.854L9.27435 8.854Z" fill="white"/>
</svg>
