<svg width="16" height="17" viewBox="0 0 16 17" fill="none" xmlns="http://www.w3.org/2000/svg">
<path d="M10.0672 1.09813C9.79801 0.822664 9.47646 0.603775 9.12147 0.454332C8.76647 0.304889 8.38518 0.227905 8 0.227905C7.61482 0.227905 7.23353 0.304889 6.87853 0.454332C6.52354 0.603775 6.20199 0.822664 5.93279 1.09813L5.31073 1.73616L4.42064 1.72516C4.03535 1.7206 3.65304 1.79312 3.29619 1.93845C2.93934 2.08379 2.61515 2.29901 2.34269 2.57145C2.07023 2.84389 1.855 3.16806 1.70966 3.52489C1.56431 3.88172 1.49179 4.264 1.49635 4.64927L1.50635 5.5393L0.870283 6.16133C0.594795 6.43051 0.375894 6.75203 0.226441 7.10701C0.0769884 7.46199 0 7.84325 0 8.22841C0 8.61356 0.0769884 8.99482 0.226441 9.3498C0.375894 9.70478 0.594795 10.0263 0.870283 10.2955L1.50735 10.9175L1.49635 11.8075C1.49179 12.1928 1.56431 12.5751 1.70966 12.9319C1.855 13.2888 2.07023 13.6129 2.34269 13.8854C2.61515 14.1578 2.93934 14.373 3.29619 14.5184C3.65304 14.6637 4.03535 14.7362 4.42064 14.7317L5.31073 14.7217L5.93279 15.3577C6.20199 15.6331 6.52354 15.852 6.87853 16.0015C7.23353 16.1509 7.61482 16.2279 8 16.2279C8.38518 16.2279 8.76647 16.1509 9.12147 16.0015C9.47646 15.852 9.79801 15.6331 10.0672 15.3577L10.6893 14.7207L11.5794 14.7317C11.9646 14.7362 12.347 14.6637 12.7038 14.5184C13.0607 14.373 13.3849 14.1578 13.6573 13.8854C13.9298 13.6129 14.145 13.2888 14.2903 12.9319C14.4357 12.5751 14.5082 12.1928 14.5037 11.8075L14.4937 10.9175L15.1297 10.2955C15.4052 10.0263 15.6241 9.70478 15.7736 9.3498C15.923 8.99482 16 8.61356 16 8.22841C16 7.84325 15.923 7.46199 15.7736 7.10701C15.6241 6.75203 15.4052 6.43051 15.1297 6.16133L14.4927 5.5393L14.5037 4.64927C14.5082 4.264 14.4357 3.88172 14.2903 3.52489C14.145 3.16806 13.9298 2.84389 13.6573 2.57145C13.3849 2.29901 13.0607 2.08379 12.7038 1.93845C12.347 1.79312 11.9646 1.7206 11.5794 1.72516L10.6893 1.73516L10.0672 1.09813ZM8.50005 6.22833V7.72839H10.0002C10.1328 7.72839 10.26 7.78107 10.3538 7.87484C10.4476 7.96861 10.5003 8.09579 10.5003 8.22841C10.5003 8.36102 10.4476 8.4882 10.3538 8.58197C10.26 8.67574 10.1328 8.72843 10.0002 8.72843H8.50005V10.2285C8.50005 10.3611 8.44737 10.4883 8.35359 10.582C8.25981 10.6758 8.13262 10.7285 8 10.7285C7.86738 10.7285 7.74019 10.6758 7.64641 10.582C7.55263 10.4883 7.49995 10.3611 7.49995 10.2285V8.72843H5.9998C5.86718 8.72843 5.73999 8.67574 5.64621 8.58197C5.55243 8.4882 5.49975 8.36102 5.49975 8.22841C5.49975 8.09579 5.55243 7.96861 5.64621 7.87484C5.73999 7.78107 5.86718 7.72839 5.9998 7.72839H7.49995V6.22833C7.49995 6.09572 7.55263 5.96853 7.64641 5.87476C7.74019 5.78099 7.86738 5.72831 8 5.72831C8.13262 5.72831 8.25981 5.78099 8.35359 5.87476C8.44737 5.96853 8.50005 6.09572 8.50005 6.22833Z" fill="white"/>
</svg>
