<svg width="16" height="17" viewBox="0 0 16 17" fill="none" xmlns="http://www.w3.org/2000/svg">
<path d="M0 1.76018C0 1.30553 0.180612 0.869492 0.502103 0.548001C0.823594 0.22651 1.25963 0.0458984 1.71429 0.0458984H5.14286C5.59751 0.0458984 6.03355 0.22651 6.35504 0.548001C6.67653 0.869492 6.85714 1.30553 6.85714 1.76018V5.18876C6.85714 5.64341 6.67653 6.07945 6.35504 6.40094C6.03355 6.72243 5.59751 6.90304 5.14286 6.90304H1.71429C1.25963 6.90304 0.823594 6.72243 0.502103 6.40094C0.180612 6.07945 0 5.64341 0 5.18876V1.76018ZM9.14286 1.76018C9.14286 1.30553 9.32347 0.869492 9.64496 0.548001C9.96645 0.22651 10.4025 0.0458984 10.8571 0.0458984H14.2857C14.7404 0.0458984 15.1764 0.22651 15.4979 0.548001C15.8194 0.869492 16 1.30553 16 1.76018V5.18876C16 5.64341 15.8194 6.07945 15.4979 6.40094C15.1764 6.72243 14.7404 6.90304 14.2857 6.90304H10.8571C10.4025 6.90304 9.96645 6.72243 9.64496 6.40094C9.32347 6.07945 9.14286 5.64341 9.14286 5.18876V1.76018ZM0 10.903C0 10.4484 0.180612 10.0123 0.502103 9.69086C0.823594 9.36937 1.25963 9.18876 1.71429 9.18876H5.14286C5.59751 9.18876 6.03355 9.36937 6.35504 9.69086C6.67653 10.0123 6.85714 10.4484 6.85714 10.903V14.3316C6.85714 14.7863 6.67653 15.2223 6.35504 15.5438C6.03355 15.8653 5.59751 16.0459 5.14286 16.0459H1.71429C1.25963 16.0459 0.823594 15.8653 0.502103 15.5438C0.180612 15.2223 0 14.7863 0 14.3316V10.903ZM9.14286 10.903C9.14286 10.4484 9.32347 10.0123 9.64496 9.69086C9.96645 9.36937 10.4025 9.18876 10.8571 9.18876H14.2857C14.7404 9.18876 15.1764 9.36937 15.4979 9.69086C15.8194 10.0123 16 10.4484 16 10.903V14.3316C16 14.7863 15.8194 15.2223 15.4979 15.5438C15.1764 15.8653 14.7404 16.0459 14.2857 16.0459H10.8571C10.4025 16.0459 9.96645 15.8653 9.64496 15.5438C9.32347 15.2223 9.14286 14.7863 9.14286 14.3316V10.903Z" fill="white"/>
</svg>
