<svg width="65" height="64" viewBox="0 0 65 64" fill="none" xmlns="http://www.w3.org/2000/svg">
<path d="M45.9856 29.442C45.9856 32.1092 45.1947 34.7165 43.7128 36.9342C42.231 39.1519 40.1249 40.8803 37.6607 41.901C35.1965 42.9217 32.485 43.1888 29.8691 42.6684C27.2532 42.1481 24.8503 40.8637 22.9643 38.9777C21.0783 37.0917 19.7939 34.6888 19.2736 32.0729C18.7532 29.4569 19.0203 26.7455 20.041 24.2813C21.0617 21.8171 22.7901 19.711 25.0078 18.2291C27.2255 16.7473 29.8328 15.9564 32.5 15.9564C36.0766 15.9564 39.5067 17.3772 42.0357 19.9062C44.5648 22.4353 45.9856 25.8654 45.9856 29.442ZM64.375 31.8939C64.375 38.1982 62.5056 44.3609 59.0031 49.6027C55.5006 54.8445 50.5224 58.93 44.698 61.3426C38.8736 63.7551 32.4646 64.3863 26.2815 63.1564C20.0984 61.9265 14.4188 58.8907 9.96098 54.4329C5.50319 49.9751 2.46739 44.2956 1.23748 38.1124C0.00757968 31.9293 0.638811 25.5203 3.05135 19.6959C5.4639 13.8715 9.54939 8.8933 14.7912 5.39083C20.033 1.88836 26.1957 0.0189209 32.5 0.0189209C40.9488 0.0351219 49.0469 3.39857 55.0211 9.37279C60.9953 15.347 64.3588 23.4451 64.375 31.8939ZM59.4712 31.8939C59.4728 27.5256 58.4133 23.2223 56.384 19.354C54.3546 15.4857 51.416 12.1683 47.821 9.68685C44.2259 7.20545 40.0819 5.63438 35.7453 5.10876C31.4088 4.58314 27.0095 5.11869 22.9257 6.66937C18.8419 8.22004 15.1959 10.7394 12.3011 14.0109C9.40635 17.2823 7.34952 21.2079 6.30748 25.4501C5.26545 29.6923 5.26939 34.1241 6.31898 38.3644C7.36856 42.6047 9.43237 46.5267 12.3329 49.7929C14.3177 46.9459 16.8753 44.5449 19.842 42.7437C23.2481 46.0069 27.7829 47.8286 32.5 47.8286C37.2171 47.8286 41.7519 46.0069 45.1581 42.7437C48.1247 44.5449 50.6823 46.9459 52.6671 49.7929C57.058 44.8657 59.4802 38.4937 59.4712 31.8939Z" fill="#9A9A9A"/>
</svg>
